# xmcd
#
# Track frame offsets:
#	183
#	70690
#	124993
#	168848
#	225388
#	284248
#
# Disc length: 4609 seconds
#
# Revision: 3
# Processed by: cddbd v1.5.2PL0 Copyright (c) Steve Scherf et al.
# Submitted via: audiograbber 1.83.01
#
DISCID=5111ff06
DTITLE=Smetana, Bedrich - Má Vlast
DYEAR=1991
DGENRE=Classical
TTITLE0=Vysehrad
TTITLE1=Vltava
TTITLE2=Sarka
TTITLE3=Z ceskych luhu a haju
TTITLE4=Tabor
TTITLE5=Blanik
EXTD=YEAR: 1991
EXTT0=
EXTT1=
EXTT2=
EXTT3=
EXTT4=
EXTT5=
PLAYORDER=
